<svg width="971" height="971" viewBox="0 0 971 971" fill="none" xmlns="http://www.w3.org/2000/svg">
<rect x="-4" y="485.318" width="692" height="692" rx="10" transform="rotate(-45 -4 485.318)" fill="white"/>
<g clip-path="url(#clip0_0_1)">
<path d="M286.971 610.228C286.617 609.144 283.933 609.621 283.675 608.652C283.418 607.686 285.994 606.876 287.97 604.154C288.326 603.663 290.571 600.569 289.71 599.268C288.078 596.802 276.722 602.944 273.996 599.497C273.398 598.741 273.152 597.442 271.37 595.026C270.661 594.064 270.206 593.6 269.662 593.614C268.891 593.633 268.615 594.598 267.403 596.345C265.586 598.966 264.93 598.637 263.732 600.784C262.843 602.378 262.738 603.397 262.097 603.457C261.19 603.542 260.815 601.557 259.707 601.48C258.576 601.402 257.444 603.363 256.883 604.895C255.83 607.77 256.482 609.967 256.627 612.157C256.784 614.537 256.415 618.021 253.829 622.493L229.437 661.355C234.676 653.433 249.545 631.829 255.536 623.905C257.266 621.618 259.124 619.321 261.985 618.888C264.739 618.472 268.09 619.835 272.767 619.756C273.314 619.746 274.834 619.701 275.204 618.895C275.509 618.229 274.75 617.65 275.026 617.024C275.397 616.184 277.063 616.544 279.334 615.987C280.936 615.593 282.024 614.943 282.959 614.384C283.241 614.216 287.443 611.671 286.971 610.228H286.971V610.228Z" fill="#F2F2F2"/>
<path d="M223.085 619.301C222.451 619.162 221.911 620.617 221.361 620.464C220.812 620.312 221.158 618.814 220.392 617.059C220.254 616.742 219.383 614.748 218.496 614.795C216.815 614.884 216.553 622.23 214.075 622.573C213.531 622.649 212.823 622.395 211.122 622.572C210.446 622.643 210.087 622.732 209.937 623.003C209.724 623.387 210.118 623.801 210.626 624.9C211.387 626.548 211.037 626.775 211.745 627.982C212.271 628.878 212.74 629.224 212.585 629.556C212.365 630.026 211.283 629.637 210.925 630.159C210.56 630.691 211.196 631.812 211.786 632.53C212.894 633.876 214.16 634.19 215.277 634.751C216.49 635.361 218.094 636.547 219.542 639.107L231.578 662.291C229.201 657.434 222.889 643.903 220.728 638.676C220.104 637.167 219.513 635.592 220.126 634.063C220.717 632.592 222.353 631.34 223.663 629.022C223.816 628.751 224.233 627.992 223.944 627.578C223.705 627.235 223.202 627.441 222.974 627.125C222.669 626.7 223.327 625.987 223.708 624.711C223.977 623.812 223.972 623.09 223.968 622.47C223.966 622.283 223.929 619.486 223.085 619.301V619.301L223.085 619.301Z" fill="#F2F2F2"/>
<path d="M235.093 624.958L235.471 621.465L235.703 621.246C236.777 620.231 237.448 619.156 237.7 618.05C237.74 617.874 237.771 617.696 237.803 617.515C237.929 616.797 238.085 615.904 238.775 614.977C239.162 614.46 240.184 613.292 241.238 613.7C241.523 613.807 241.715 613.991 241.848 614.187C241.882 614.153 241.916 614.119 241.953 614.082C242.408 613.64 242.727 613.478 243.033 613.322C243.269 613.202 243.513 613.078 243.925 612.748C244.105 612.604 244.25 612.474 244.372 612.365C244.742 612.034 245.215 611.647 245.863 611.801C246.55 611.988 246.786 612.644 246.942 613.078C247.221 613.852 247.307 614.384 247.364 614.737C247.385 614.866 247.408 615.011 247.426 615.058C247.577 615.437 249.464 615.535 250.175 615.576C251.771 615.663 253.153 615.738 253.485 616.831C253.724 617.613 253.227 618.466 251.966 619.434C251.573 619.735 251.18 619.942 250.838 620.098C251.049 620.297 251.216 620.567 251.227 620.936C251.25 621.808 250.355 622.477 248.568 622.928C248.124 623.042 247.526 623.192 246.744 623.154C246.376 623.136 246.054 623.079 245.779 623.027C245.738 623.183 245.663 623.346 245.527 623.501C245.129 623.956 244.487 624.072 243.615 623.815C242.652 623.547 241.891 623.182 241.22 622.861C240.634 622.582 240.128 622.343 239.704 622.278C238.915 622.168 238.179 622.655 237.299 623.303L235.093 624.958H235.093L235.093 624.958Z" fill="#F2F2F2"/>
<path d="M241.389 605.063L237.914 605.583L237.643 605.415C236.39 604.633 235.18 604.256 234.046 604.293C233.865 604.299 233.685 604.314 233.502 604.33C232.775 604.39 231.872 604.466 230.8 604.033C230.202 603.79 228.814 603.098 228.941 601.975C228.972 601.672 229.102 601.44 229.257 601.261C229.215 601.237 229.174 601.213 229.129 601.187C228.586 600.858 228.348 600.591 228.119 600.334C227.943 600.136 227.762 599.932 227.339 599.617C227.153 599.479 226.99 599.372 226.854 599.282C226.44 599.008 225.946 598.648 225.93 597.982C225.937 597.27 226.512 596.876 226.892 596.615C227.57 596.149 228.062 595.93 228.389 595.786C228.509 595.733 228.643 595.674 228.685 595.644C229.013 595.403 228.629 593.552 228.488 592.854C228.167 591.288 227.889 589.933 228.863 589.334C229.559 588.905 230.51 589.169 231.766 590.143C232.156 590.447 232.457 590.774 232.694 591.066C232.833 590.812 233.052 590.581 233.406 590.478C234.244 590.234 235.118 590.929 236.008 592.544C236.23 592.945 236.527 593.485 236.689 594.25C236.764 594.611 236.792 594.938 236.81 595.217C236.972 595.217 237.149 595.248 237.333 595.34C237.874 595.609 238.149 596.201 238.122 597.11C238.107 598.109 237.947 598.938 237.807 599.668C237.685 600.306 237.583 600.856 237.627 601.283C237.721 602.074 238.378 602.662 239.229 603.349L241.389 605.063H241.389L241.389 605.063Z" fill="#F2F2F2"/>
<path d="M241.857 594.629L242.236 591.136L242.468 590.917C243.541 589.902 244.213 588.827 244.465 587.721C244.505 587.545 244.536 587.367 244.568 587.186C244.693 586.468 244.849 585.575 245.54 584.648C245.926 584.131 246.948 582.963 248.003 583.371C248.287 583.478 248.479 583.662 248.613 583.858C248.646 583.824 248.68 583.79 248.717 583.753C249.173 583.311 249.491 583.149 249.798 582.993C250.034 582.872 250.277 582.749 250.689 582.419C250.87 582.275 251.015 582.145 251.137 582.035C251.507 581.705 251.98 581.318 252.628 581.472C253.315 581.659 253.551 582.315 253.707 582.749C253.986 583.522 254.072 584.055 254.129 584.408C254.149 584.537 254.173 584.682 254.191 584.729C254.341 585.108 256.229 585.206 256.939 585.247C258.536 585.334 259.917 585.409 260.25 586.502C260.488 587.284 259.991 588.137 258.73 589.105C258.338 589.406 257.945 589.613 257.603 589.769C257.813 589.967 257.981 590.238 257.991 590.606C258.014 591.479 257.12 592.148 255.332 592.599C254.888 592.713 254.291 592.863 253.509 592.825C253.141 592.807 252.818 592.75 252.543 592.698C252.502 592.854 252.427 593.017 252.292 593.172C251.894 593.627 251.251 593.743 250.379 593.486C249.417 593.218 248.656 592.853 247.985 592.532C247.398 592.253 246.893 592.014 246.469 591.949C245.68 591.839 244.944 592.326 244.064 592.974L241.857 594.629H241.857H241.857Z" fill="#F2F2F2"/>
<path d="M230.591 661.554L229.976 660.947L229.987 660.084L229.976 660.947L229.122 660.857C229.127 660.777 229.121 660.589 229.115 660.295C229.082 658.689 228.98 653.798 229.661 646.284C230.136 641.039 230.931 635.715 232.022 630.457C233.116 625.191 234.251 621.272 235.162 618.123C235.85 615.748 236.544 613.495 237.222 611.3C239.031 605.437 240.738 599.898 241.796 593.581C242.033 592.17 242.524 589.235 241.518 585.77C240.934 583.76 239.934 581.869 238.546 580.15L239.89 579.064C241.422 580.964 242.528 583.059 243.176 585.29C244.292 589.132 243.756 592.33 243.499 593.867C242.423 600.296 240.698 605.888 238.871 611.808C238.197 613.995 237.505 616.238 236.82 618.603C235.917 621.724 234.792 625.608 233.713 630.806C232.634 636.002 231.85 641.261 231.379 646.44C230.707 653.859 230.808 658.676 230.841 660.259C230.859 661.104 230.862 661.281 230.591 661.554V661.554L230.591 661.554Z" fill="#F2F2F2"/>
<path d="M234.858 582.138C234.789 582.122 234.72 582.105 234.65 582.084C233.232 581.687 232.095 580.531 231.269 578.651C230.883 577.767 230.791 576.836 230.609 574.98C230.581 574.694 230.455 573.246 230.61 571.327C230.711 570.073 230.846 569.569 231.187 569.174C231.566 568.733 232.076 568.481 232.616 568.354C232.63 568.188 232.685 568.026 232.793 567.872C233.236 567.234 233.979 567.496 234.382 567.632C234.585 567.705 234.839 567.798 235.123 567.846C235.571 567.923 235.838 567.845 236.242 567.728C236.629 567.615 237.11 567.476 237.775 567.488C239.087 567.506 240.059 568.095 240.379 568.289C242.066 569.303 242.648 570.92 243.322 572.793C243.456 573.168 243.901 574.525 244.004 576.271C244.079 577.532 243.914 578.048 243.725 578.417C243.338 579.175 242.745 579.527 241.276 580.266C239.74 581.041 238.969 581.429 238.338 581.628C236.867 582.09 235.944 582.38 234.858 582.137V582.138V582.138Z" fill="#F2F2F2"/>
<path d="M429.893 476.007C434.477 472.135 433.26 463.156 427.175 455.952C424.511 452.799 421.356 450.509 418.265 449.255L414.713 445.156L368.846 387.686C368.846 387.686 343.446 330.515 335.948 324.338C328.45 318.162 319.628 321.378 319.628 321.378L312.745 329.894L355.637 409.718L399.534 453.895L405.46 460.073C406.18 463.33 407.91 466.823 410.574 469.976C416.66 477.18 425.309 479.88 429.893 476.007V476.007Z" fill="#FFB6B6"/>
<path d="M343.313 334.969L354.807 351.826L371.308 376.248L341.658 386.504L315.48 341.585L343.313 334.969Z" fill="#E6E6E6"/>
<path d="M813 660H157V662H813V660Z" fill="#3F3D56"/>
<path d="M621.413 520.984H569.112V503.224C569.112 474.656 592.306 451.462 620.874 451.462H621.413V520.984V520.984Z" fill="#2F2E41"/>
<path d="M580.767 511.684L589.436 483.311L611.674 482.198L621.413 520.984L580.767 511.684Z" fill="#A0616A"/>
<path opacity="0.1" d="M580.767 511.684L589.436 483.311L611.674 482.198L621.413 520.984L580.767 511.684Z" fill="black"/>
<path d="M601.003 499.936C615.445 499.936 627.153 488.228 627.153 473.785C627.153 459.343 615.445 447.635 601.003 447.635C586.56 447.635 574.853 459.343 574.853 473.785C574.853 488.228 586.56 499.936 601.003 499.936Z" fill="#A0616A"/>
<path d="M545.577 619.952L538.656 626.874C538.656 626.874 501.671 602.067 487.487 611.318C473.302 620.57 472.685 638.484 489.363 648.368C506.042 658.251 548.666 682.343 548.666 682.343C548.666 682.343 605.497 692.227 643.797 661.958C682.096 631.689 689.2 633.233 682.405 617.172C675.61 601.111 660.784 604.818 660.784 604.818L632.368 621.496L620.632 619.025L545.577 619.952V619.952Z" fill="#2F2E41"/>
<path d="M547.121 627.674L576.773 640.646L565.653 667.209L521.794 656.707" fill="#2F2E41"/>
<path d="M622.91 627.674L582.95 646.206L598.393 678.328L642.87 659.178" fill="#2F2E41"/>
<path d="M582.95 506.547L544.342 523.586L556.696 591.536L545.577 619.952L604.879 629.218L635.29 619.782L632.677 606.362L635.29 556.277L645.65 526.674L617.852 507.525L582.95 506.547Z" fill="#E6E6E6"/>
<path d="M573.066 643.117L592.216 648.677L582.95 671.38L557.623 661.649L573.066 643.117Z" fill="#A0616A"/>
<path d="M599.68 643.117L576.155 654.854V672.78L602.717 669.68L599.68 643.117Z" fill="#A0616A"/>
<path d="M565.653 677.092C565.653 677.092 606.424 704.273 621.867 693.153C637.31 682.034 645.959 667.826 642.87 665.973C639.781 664.12 630.515 661.031 630.515 661.031L578.626 671.533L565.653 677.092Z" fill="#2F2E41"/>
<path d="M513.764 656.707C513.764 656.707 492.761 688.829 512.528 693.771C532.296 698.713 582.111 678.328 582.111 678.328L578.626 651.765L569.36 661.031L513.764 656.707V656.707Z" fill="#2F2E41"/>
<path d="M644.663 434.367C638.885 429.026 636.957 421.715 640.357 418.038C643.757 414.361 651.196 415.711 656.975 421.055C659.313 423.158 661.113 425.791 662.225 428.732L686.422 451.672L675.415 462.797L652.73 439.001C649.71 438.123 646.943 436.534 644.663 434.367V434.367Z" fill="#A0616A"/>
<path d="M638.082 505.499L681.864 484.132L659.216 445.179L666.306 430.775C666.306 430.775 721.425 461.5 715.94 483.858C710.455 506.215 655.784 547.288 638.323 540.722C633.022 538.729 629.951 535.171 628.245 531.183C624.078 521.444 628.562 510.145 638.082 505.499V505.499Z" fill="#E6E6E6"/>
<path d="M550.939 494.941C552.269 490.897 554.894 487.356 556.069 483.264C557.629 477.83 560.95 489.884 561.274 484.241C561.89 473.513 578.262 445.92 587.609 440.619C596.955 435.319 602.324 436.917 611.846 441.895C611.846 441.895 616.468 442.189 622.222 445.03C627.977 447.871 633.157 452.421 635.395 458.435C637.169 463.203 636.973 468.438 637.565 473.49C639.217 487.565 647.107 500.951 645.413 515.021C644.885 519.411 643.216 523.95 639.627 526.532C636.038 529.114 630.239 528.833 627.877 525.096C627.071 523.821 626.73 522.308 626.039 520.966C625.348 519.625 624.1 518.375 622.591 518.416C620.324 518.479 619.17 521.521 620.064 523.605C620.958 525.689 623.059 526.948 625.031 528.067C620.334 530.18 614.507 529.522 610.399 526.415C606.291 523.307 604.073 517.878 604.829 512.783C605.894 505.603 616.354 507.089 617.586 499.936C618.483 494.729 621.633 486.015 620.775 480.801C619.917 475.588 615.796 481.901 620.137 478.888C615.361 481.19 605.146 465.44 600.146 463.675C595.146 461.911 590.907 458.091 588.633 453.301C583.33 460.989 578.665 458.901 576.766 468.045C574.867 477.189 578.02 505.394 585.84 510.499C582.711 512.635 578.819 508.257 577.35 511.75C576.518 513.728 575.979 515.893 574.598 517.536C571.961 520.675 567.092 520.866 563.211 519.546C558.398 517.91 554.283 514.316 552.015 509.768C549.746 505.219 549.351 499.77 550.939 494.941H550.939Z" fill="#2F2E41"/>
<path d="M484.046 488.812C482.633 481.072 477.493 475.527 472.567 476.427C467.641 477.327 464.795 484.331 466.21 492.074C466.732 495.175 467.99 498.106 469.878 500.621L476.28 533.343L491.572 530.011L483.636 498.107C484.513 495.086 484.654 491.899 484.046 488.812V488.812Z" fill="#A0616A"/>
<path d="M547.63 521.372L506.129 546.889L485.377 506.893L469.416 505.161C469.416 505.161 465.822 568.163 487.638 575.512C509.454 582.862 573.428 558.711 577.24 540.45C578.398 534.907 577.04 530.408 574.587 526.83C568.597 518.093 556.654 515.824 547.63 521.372V521.372Z" fill="#E6E6E6"/>
<path d="M774.051 569.012L625.39 615.999V434.986L774.051 388V569.012Z" fill="white"/>
<path d="M624.39 617.364V434.254L775.051 386.635V569.745L624.39 617.364ZM626.39 435.719V614.634L773.051 568.28V389.365L626.39 435.719Z" fill="#3F3D56"/>
<path d="M410 609.167L529.222 646.849V501.682L410 464V609.167Z" fill="white"/>
<path d="M530.223 648.214L528.921 647.802L409 609.899V462.635L410.302 463.047L530.223 500.949V648.214V648.214ZM411 608.435L528.223 645.483V502.414L411 465.365V608.435Z" fill="#3F3D56"/>
<path d="M661.521 446.173C659.823 455.029 662.922 464.659 669.468 470.861C676.014 477.063 685.796 479.64 694.548 477.467C702.857 475.403 710.629 466.618 707.113 458.811C704.607 453.246 696.963 451.14 691.477 453.816C685.991 456.493 682.94 462.926 683.257 469.021C683.574 475.117 686.818 480.784 691.145 485.088C702.433 496.316 720.512 499.228 730.461 511.657C739.149 522.511 738.882 539.547 729.858 550.123C720.834 560.7 704.052 563.645 691.966 556.774C686.984 553.941 682.698 549.398 681.461 543.803C680.223 538.208 682.717 531.645 687.952 529.315C697.825 524.921 707.766 536.725 718.572 536.898C724.761 536.997 730.772 532.716 732.702 526.835C734.632 520.954 732.327 513.944 727.283 510.356" fill="#FFFF00"/>
<path d="M452.311 572.825C454.222 578.434 450.262 585.275 444.446 586.411C438.629 587.546 432.386 582.698 432.047 576.782C431.707 570.866 437.354 565.335 443.262 565.797C452.78 566.542 458.401 579.571 467.929 578.962C474.449 578.545 478.567 571.877 480.973 565.803C483.744 558.81 485.771 551.523 487.008 544.103C488.039 537.914 488.513 531.506 487.025 525.41C485.536 519.315 481.849 513.527 476.258 510.679C467.765 506.353 456.14 510.573 452.085 519.198C448.029 527.824 451.936 539.219 460.262 543.858C470.674 549.658 485.016 545.481 494.476 552.732C502.058 558.543 503.361 569.26 504.053 578.787C504.494 584.864 504.93 591.035 503.686 596.999C502.442 602.964 499.273 608.801 494.018 611.884C490.038 614.22 484.724 614.682 480.894 612.109C477.063 609.536 475.625 603.581 478.604 600.056C481.042 597.171 485.481 596.711 489.05 597.95C492.618 599.189 495.523 601.786 498.324 604.32" fill="#FFFF00"/>
<path d="M354.983 277.597L346.658 309.335L314.92 303.092C314.92 303.092 327.407 280.198 324.285 269.792L354.983 277.597H354.983Z" fill="#FFB6B6"/>
<path d="M321.479 690.732L340.591 690.73L349.683 617.009L321.475 617.011L321.479 690.732Z" fill="#FFB6B6"/>
<path d="M386.961 690.298C387.556 691.3 387.87 694.535 387.87 695.701C387.87 699.283 384.966 702.188 381.383 702.188H322.194C319.75 702.188 317.768 700.206 317.768 697.762V695.298C317.768 695.298 314.84 687.892 320.869 678.763C320.869 678.763 328.361 685.911 339.557 674.715L342.858 668.734L366.756 686.212L380.003 687.843C382.901 688.199 385.47 687.787 386.961 690.298H386.961V690.298Z" fill="#2F2E41"/>
<path d="M374.548 477.382L348.211 656.598H315.169L319.563 554.297L321.875 500.507L315.169 474.903C315.169 474.903 312.111 469.212 309.535 462.313C306.632 454.527 304.339 445.194 307.743 440.768C308.996 439.137 312.253 437.929 316.678 437.03C319.383 436.477 322.53 436.047 325.928 435.713C345.469 433.78 373.263 434.987 373.263 434.987L373.97 458.304L374.361 471.325L374.548 477.382H374.548Z" fill="#2F2E41"/>
<path d="M287.811 681.967L306.721 684.745L326.439 613.131L298.531 609.03L287.811 681.967Z" fill="#FFB6B6"/>
<path d="M352.66 691.063C353.103 692.141 352.943 695.387 352.774 696.54C352.253 700.085 348.957 702.536 345.412 702.015L286.852 693.405C284.434 693.05 282.762 690.801 283.118 688.383L283.476 685.945C283.476 685.945 281.657 678.192 288.949 670.037C288.949 670.037 295.322 678.199 308.027 668.75L312.163 663.313L333.265 684.082L346.133 687.622C348.948 688.396 351.55 688.362 352.66 691.063L352.66 691.063H352.66Z" fill="#2F2E41"/>
<path d="M374.962 447.494L371.35 478.603L351.65 544.158L319.222 652.084L286.534 647.28L315.871 493.826L312.966 467.512C312.966 467.512 312.02 464.897 310.936 461.067C308.783 453.492 306.084 441.155 309.054 434.862C309.455 434.007 309.958 433.265 310.581 432.664C311.749 431.531 314.123 430.843 317.304 430.478C330.6 428.975 357.981 433.273 370.165 435.383L374.962 447.494V447.494Z" fill="#2F2E41"/>
<path d="M349.78 299.97L385.68 345.236L379.236 392.43L373.714 440.451L308.676 430.565C308.676 430.565 322.724 396.746 324.285 395.185C325.846 393.624 329.767 397.479 327.026 392.43C324.285 387.38 321.163 387.38 323.765 384.779C326.366 382.177 303.473 348.358 303.473 330.147C303.473 311.937 314.399 297.368 314.399 297.368L349.78 299.97L349.78 299.97Z" fill="#E6E6E6"/>
<path d="M341.404 283.591C354.76 283.591 365.588 272.763 365.588 259.406C365.588 246.049 354.76 235.222 341.404 235.222C328.047 235.222 317.219 246.049 317.219 259.406C317.219 272.763 328.047 283.591 341.404 283.591Z" fill="#FFB6B6"/>
<path d="M340.273 305.646C340.273 305.646 343.892 277.011 344.533 268.684C345.173 260.357 356.928 247.356 356.928 247.356L365.255 254.082C365.255 254.082 372.301 254.082 367.497 243.833C362.693 233.584 353.725 231.983 353.725 231.983C353.725 231.983 352.764 218.531 336.11 220.132C319.455 221.734 312.089 235.185 312.089 235.185C312.089 235.185 311.128 218.211 300.559 230.702C289.99 243.192 283.905 248.317 295.114 252.48C306.324 256.644 314.651 253.441 314.651 253.441C314.651 253.441 303.762 255.683 305.684 263.37C307.605 271.056 280.382 305.966 292.872 309.81C305.363 313.653 333.227 322.941 336.43 316.856C339.633 310.771 340.273 305.646 340.273 305.646V305.646Z" fill="#2F2E41"/>
<path d="M439.967 478.406C444.583 474.572 443.442 465.583 437.417 458.328C434.779 455.153 431.643 452.837 428.564 451.557L425.046 447.428L379.662 389.576C379.662 389.576 354.742 332.194 347.296 325.955C339.85 319.716 331.001 322.857 331.001 322.857L324.047 331.315L366.269 411.496L409.794 456.04L415.668 462.267C416.36 465.53 418.062 469.037 420.699 472.213C426.724 479.467 435.351 482.24 439.967 478.406H439.967Z" fill="#FFB6B6"/>
<path d="M321.412 318.41C321.412 318.41 332.523 376.064 345.165 384.564L370.358 364.919C370.358 364.919 372.563 364.824 368.459 360.19C364.356 355.555 365.407 345.602 365.407 345.602C365.407 345.602 367.253 347.991 363.236 344.674C359.218 341.358 362.958 318.552 362.958 318.552L321.412 318.41L321.412 318.41Z" fill="#E6E6E6"/>
</g>
<defs>
<clipPath id="clip0_0_1">
<rect width="656" height="482.188" fill="white" transform="translate(157 220)"/>
</clipPath>
</defs>
</svg>
