<svg width="971" height="971" viewBox="0 0 971 971" fill="none" xmlns="http://www.w3.org/2000/svg">
<rect x="-4" y="485.318" width="692" height="692" rx="10" transform="rotate(-45 -4 485.318)" fill="white"/>
<g clip-path="url(#clip0_0_1)">
<path d="M344.784 540.766C343.94 539.342 340.287 540.866 339.616 539.574C338.947 538.287 342.34 536.325 344.279 531.844C344.629 531.036 346.832 525.944 345.201 524.373C342.109 521.394 327.961 533.685 323.01 529.663C321.924 528.781 321.164 527.018 317.876 524.157C316.568 523.019 315.776 522.505 315.011 522.697C313.925 522.968 313.838 524.422 312.674 527.281C310.927 531.568 309.893 531.309 308.875 534.729C308.12 537.269 308.292 538.745 307.403 539.033C306.145 539.44 304.987 536.746 303.392 536.987C301.765 537.234 300.781 540.37 300.471 542.717C299.887 547.124 301.505 550.031 302.402 553.088C303.377 556.41 303.955 561.463 301.705 568.616L279.427 631.382C284.346 618.502 298.586 583.196 304.57 570.076C306.297 566.289 308.204 562.447 312.121 560.931C315.891 559.471 321.069 560.343 327.671 558.753C328.442 558.567 330.581 558.023 330.851 556.764C331.073 555.724 329.815 555.143 330.008 554.169C330.268 552.862 332.742 552.846 335.784 551.338C337.928 550.274 339.264 549.01 340.413 547.922C340.759 547.595 345.908 542.661 344.784 540.766H344.784Z" fill="#F2F2F2"/>
<path d="M257.139 573.808C256.197 573.812 255.891 576.044 255.063 576.001C254.238 575.958 254.254 573.727 252.615 571.482C252.319 571.077 250.455 568.527 249.214 568.874C246.86 569.532 248.81 580.022 245.407 581.292C244.661 581.57 243.577 581.435 241.224 582.223C240.288 582.537 239.807 582.777 239.68 583.208C239.5 583.819 240.188 584.281 241.255 585.678C242.856 587.772 242.43 588.204 243.816 589.691C244.844 590.794 245.618 591.136 245.503 591.655C245.339 592.39 243.683 592.181 243.342 593.034C242.993 593.903 244.248 595.291 245.311 596.121C247.305 597.678 249.199 597.723 250.958 598.165C252.87 598.645 255.517 599.819 258.378 602.988L282.756 632.031C277.854 625.902 264.635 608.725 259.922 602.003C258.561 600.062 257.226 598.018 257.612 595.658C257.983 593.386 259.905 591.096 261.029 587.397C261.161 586.965 261.511 585.758 260.971 585.263C260.525 584.854 259.876 585.304 259.454 584.928C258.887 584.423 259.593 583.204 259.731 581.276C259.828 579.917 259.593 578.896 259.39 578.019C259.329 577.754 258.393 573.803 257.139 573.808V573.808H257.139Z" fill="#F2F2F2"/>
<path d="M275.939 578.029L275.371 572.96L275.63 572.576C276.831 570.799 277.442 569.064 277.45 567.417C277.451 567.156 277.439 566.894 277.426 566.627C277.377 565.57 277.316 564.256 278.002 562.724C278.386 561.87 279.465 559.892 281.087 560.137C281.524 560.198 281.855 560.399 282.105 560.634C282.142 560.575 282.18 560.516 282.22 560.453C282.726 559.682 283.126 559.351 283.511 559.033C283.808 558.789 284.113 558.536 284.593 557.939C284.804 557.678 284.967 557.447 285.106 557.254C285.525 556.669 286.074 555.972 287.04 555.984C288.073 556.033 288.614 556.887 288.972 557.452C289.612 558.461 289.902 559.187 290.094 559.67C290.164 559.846 290.244 560.044 290.284 560.105C290.617 560.595 293.322 560.137 294.342 559.971C296.631 559.589 298.612 559.258 299.428 560.702C300.013 561.735 299.579 563.1 298.098 564.87C297.637 565.42 297.146 565.839 296.71 566.167C297.071 566.382 297.394 566.713 297.525 567.231C297.834 568.46 296.778 569.691 294.388 570.895C293.795 571.196 292.996 571.597 291.876 571.791C291.349 571.881 290.874 571.903 290.468 571.915C290.459 572.15 290.404 572.405 290.261 572.667C289.841 573.438 288.967 573.805 287.651 573.717C286.202 573.641 285.009 573.364 283.957 573.122C283.038 572.911 282.246 572.733 281.625 572.774C280.472 572.867 279.584 573.79 278.541 574.987L275.939 578.029H275.939H275.939Z" fill="#F2F2F2"/>
<path d="M278.572 547.853L273.814 549.687L273.376 549.534C271.353 548.823 269.52 548.672 267.925 549.082C267.671 549.148 267.421 549.226 267.166 549.305C266.156 549.621 264.9 550.013 263.245 549.739C262.321 549.584 260.135 549.042 259.96 547.41C259.908 546.972 260.018 546.602 260.182 546.299C260.116 546.279 260.05 546.257 259.978 546.234C259.104 545.941 258.683 545.638 258.277 545.345C257.965 545.121 257.644 544.889 256.945 544.577C256.638 544.439 256.374 544.339 256.152 544.254C255.48 543.997 254.666 543.644 254.433 542.705C254.218 541.694 254.907 540.954 255.363 540.464C256.176 539.589 256.805 539.124 257.223 538.816C257.376 538.704 257.547 538.577 257.596 538.522C257.985 538.076 256.856 535.575 256.437 534.632C255.487 532.514 254.665 530.682 255.855 529.526C256.705 528.698 258.136 528.772 260.223 529.755C260.873 530.062 261.402 530.43 261.83 530.769C261.947 530.365 262.184 529.969 262.653 529.71C263.763 529.1 265.221 529.81 266.992 531.816C267.434 532.314 268.025 532.985 268.496 534.019C268.717 534.506 268.859 534.959 268.974 535.349C269.203 535.298 269.463 535.287 269.753 535.359C270.605 535.569 271.182 536.321 271.43 537.617C271.725 539.038 271.76 540.262 271.792 541.341C271.822 542.283 271.85 543.094 272.048 543.685C272.43 544.776 273.548 545.402 274.97 546.107L278.572 547.852L278.572 547.853Z" fill="#F2F2F2"/>
<path d="M275.939 532.922L275.371 527.853L275.63 527.469C276.831 525.692 277.442 523.957 277.45 522.31C277.451 522.049 277.439 521.787 277.426 521.52C277.377 520.463 277.316 519.149 278.002 517.617C278.386 516.763 279.465 514.785 281.087 515.03C281.524 515.091 281.855 515.292 282.105 515.527C282.142 515.468 282.18 515.409 282.22 515.346C282.726 514.575 283.126 514.244 283.511 513.926C283.808 513.682 284.113 513.43 284.593 512.832C284.804 512.571 284.967 512.341 285.106 512.147C285.525 511.562 286.074 510.865 287.04 510.877C288.073 510.926 288.614 511.78 288.972 512.345C289.612 513.354 289.902 514.081 290.094 514.563C290.164 514.739 290.244 514.937 290.284 514.998C290.617 515.488 293.322 515.03 294.342 514.864C296.631 514.482 298.612 514.151 299.428 515.595C300.013 516.628 299.579 517.994 298.098 519.763C297.637 520.314 297.146 520.732 296.71 521.06C297.071 521.275 297.394 521.606 297.525 522.124C297.834 523.353 296.778 524.584 294.388 525.788C293.795 526.089 292.996 526.49 291.876 526.684C291.349 526.774 290.874 526.796 290.468 526.808C290.459 527.043 290.404 527.298 290.261 527.56C289.841 528.331 288.967 528.698 287.651 528.61C286.202 528.534 285.009 528.257 283.957 528.015C283.038 527.804 282.246 527.626 281.625 527.667C280.472 527.76 279.584 528.683 278.541 529.88L275.939 532.922H275.939H275.939Z" fill="#F2F2F2"/>
<path d="M281.124 631.299L280.062 630.633L279.805 629.407L280.062 630.633L278.824 630.775C278.804 630.66 278.737 630.396 278.635 629.983C278.081 627.716 276.391 620.82 274.982 609.959C273.998 602.378 273.441 594.584 273.326 586.789C273.211 578.983 273.581 573.073 273.877 568.323C274.101 564.74 274.372 561.329 274.639 558.005C275.349 549.127 276.018 540.74 275.52 531.456C275.41 529.383 275.179 525.068 272.658 520.477C271.196 517.815 269.182 515.451 266.671 513.454L268.232 511.491C271.004 513.699 273.232 516.317 274.856 519.273C277.65 524.364 277.902 529.065 278.024 531.323C278.53 540.772 277.853 549.239 277.136 558.204C276.872 561.515 276.6 564.911 276.378 568.479C276.084 573.185 275.718 579.044 275.832 586.75C275.945 594.452 276.495 602.15 277.466 609.636C278.858 620.36 280.523 627.154 281.07 629.385C281.362 630.577 281.423 630.827 281.124 631.299V631.299H281.124Z" fill="#F2F2F2"/>
<path d="M262.075 517.436C261.972 517.436 261.868 517.433 261.763 517.426C259.629 517.311 257.653 516.033 255.889 513.63C255.061 512.5 254.638 511.21 253.794 508.638C253.663 508.241 253.027 506.23 252.64 503.462C252.387 501.653 252.418 500.897 252.777 500.229C253.175 499.485 253.818 498.966 254.543 498.617C254.511 498.377 254.536 498.13 254.64 497.877C255.067 496.833 256.203 496.97 256.817 497.036C257.128 497.075 257.516 497.126 257.934 497.104C258.593 497.072 258.946 496.877 259.482 496.583C259.995 496.301 260.632 495.951 261.578 495.758C263.443 495.369 265.006 495.898 265.521 496.071C268.231 496.974 269.567 499.081 271.114 501.521C271.422 502.011 272.481 503.792 273.179 506.235C273.683 507.997 273.612 508.78 273.461 509.362C273.152 510.559 272.424 511.244 270.575 512.756C268.645 514.34 267.676 515.133 266.843 515.615C264.906 516.733 263.69 517.436 262.075 517.436V517.436H262.075Z" fill="#F2F2F2"/>
<path d="M529.298 631.006H368.986C344.941 631.006 325.379 611.444 325.379 587.399V163.607C325.379 139.562 344.941 120 368.986 120H529.298C553.343 120 572.905 139.562 572.905 163.607C575.889 333.789 580.978 524.365 572.905 587.399C572.905 611.444 553.343 631.006 529.298 631.006Z" fill="#3F3D56"/>
<path d="M575.141 275.885C574.123 275.885 573.296 276.712 573.296 277.729V336.762C573.296 337.78 574.123 338.607 575.141 338.607C576.158 338.607 576.985 337.78 576.985 336.762V277.729C576.985 276.712 576.158 275.885 575.141 275.885Z" fill="#3F3D56"/>
<path d="M557.835 168.928L568.755 587.391C568.755 608.32 552.465 625.44 531.868 626.768H531.859C531.554 626.787 531.25 626.805 530.936 626.814C530.392 626.842 529.848 626.851 529.295 626.851C529.295 626.851 527.265 626.704 523.557 626.427C519.812 626.15 514.361 625.735 507.563 625.191C505.525 625.034 503.375 624.859 501.106 624.674C496.587 624.306 491.624 623.9 486.302 623.438C484.18 623.263 481.985 623.07 479.744 622.876C468.288 621.889 455.457 620.736 441.926 619.426C439.638 619.214 437.332 618.993 435.008 618.762C434.399 618.697 329.531 592.335 329.531 587.391V163.607C329.531 141.811 347.194 124.147 368.99 124.147H392.548C396.312 124.147 399.337 127.081 399.66 130.835C399.688 131.084 399.715 131.333 399.762 131.582C400.444 135.354 403.903 137.983 407.74 137.983H490.545C494.382 137.983 497.841 135.354 498.524 131.582C498.57 131.333 498.597 131.084 498.625 130.835C498.948 127.081 501.973 124.147 505.737 124.147H529.295C551.091 124.147 557.835 147.132 557.835 168.928V168.928Z" fill="white"/>
<path d="M324.457 231.61C323.44 231.61 322.612 232.437 322.612 233.454V248.213C322.612 249.23 323.44 250.057 324.457 250.057C325.475 250.057 326.302 249.23 326.302 248.213V233.454C326.302 232.437 325.475 231.61 324.457 231.61Z" fill="#3F3D56"/>
<path d="M324.457 275.885C323.44 275.885 322.612 276.712 322.612 277.729V306.323C322.612 307.341 323.44 308.168 324.457 308.168C325.475 308.168 326.302 307.341 326.302 306.323V277.729C326.302 276.712 325.475 275.885 324.457 275.885Z" fill="#3F3D56"/>
<path d="M324.457 316.47C323.44 316.47 322.612 317.297 322.612 318.315V346.909C322.612 347.926 323.44 348.753 324.457 348.753C325.475 348.753 326.302 347.926 326.302 346.909V318.315C326.302 317.297 325.475 316.47 324.457 316.47Z" fill="#3F3D56"/>
<path d="M391.943 130.608H356.59C356.419 130.608 356.28 130.747 356.28 130.918V134.909C356.28 135.081 356.419 135.22 356.59 135.22H391.943C392.114 135.22 392.253 135.081 392.253 134.909V130.918C392.253 130.747 392.114 130.608 391.943 130.608Z" fill="#E6E6E6"/>
<path d="M511.566 135.22C513.604 135.22 515.256 133.568 515.256 131.53C515.256 129.492 513.604 127.84 511.566 127.84C509.528 127.84 507.876 129.492 507.876 131.53C507.876 133.568 509.528 135.22 511.566 135.22Z" fill="#E6E6E6"/>
<path d="M521.712 135.22C523.75 135.22 525.402 133.568 525.402 131.53C525.402 129.492 523.75 127.84 521.712 127.84C519.675 127.84 518.023 129.492 518.023 131.53C518.023 133.568 519.675 135.22 521.712 135.22Z" fill="#E6E6E6"/>
<path d="M531.859 135.22C533.896 135.22 535.548 133.568 535.548 131.53C535.548 129.492 533.896 127.84 531.859 127.84C529.821 127.84 528.169 129.492 528.169 131.53C528.169 133.568 529.821 135.22 531.859 135.22Z" fill="#E6E6E6"/>
<path d="M776.04 631.16C776.04 631.624 775.664 632 775.2 632H193V630.32H775.2C775.664 630.32 776.04 630.696 776.04 631.16Z" fill="#E6E6E6"/>
<path d="M651.621 729.802L671.389 736.116L646.084 794.51L632.688 790.232L651.621 729.802Z" fill="#A0616A"/>
<path d="M654.959 776.382L647.067 776.87L645.514 780.945C645.514 780.945 645.701 775.611 637.397 771.247L634.845 774.797C634.845 774.797 629.986 777.375 627.878 784.601L622.899 804.206L629.517 806.571L635.582 793.926C635.582 793.926 638.525 791.657 641.451 808.923C641.451 808.923 649.734 814.75 665.759 815.435C667.962 815.529 670.016 814.227 670.78 812.159C671.202 811.018 671.16 809.798 669.88 808.875C666.623 806.526 662.616 806.384 661.385 802.592C660.153 798.8 654.959 776.382 654.959 776.382Z" fill="#2F2E41"/>
<path d="M514.568 719.614L494.464 724.757L516.3 784.534L529.923 781.05L514.568 719.614Z" fill="#A0616A"/>
<path d="M508.504 765.917L516.353 766.867L517.664 771.026C517.664 771.026 517.791 765.691 526.337 761.821L528.676 765.514C528.676 765.514 533.375 768.373 535.055 775.71L538.876 795.574L532.131 797.547L526.818 784.567C526.818 784.567 524.013 782.13 520.079 799.194C520.079 799.194 511.468 804.526 495.431 804.269C493.226 804.234 491.252 802.813 490.611 800.704C490.257 799.54 490.37 798.325 491.702 797.479C495.092 795.325 499.1 795.418 500.551 791.705C502.003 787.992 508.504 765.917 508.504 765.917V765.917Z" fill="#2F2E41"/>
<path d="M564.077 479.839H617.766V400.507H564.077V479.839Z" fill="#2F2E41"/>
<path d="M608.551 535.531L606.949 578.002L554.061 573.995L560.471 532.326L608.551 535.531Z" fill="#A0616A"/>
<path d="M550.054 558.77L626.18 561.174L645.181 588.061L636.366 635.34C636.366 635.34 598.134 624.479 534.829 637.3L538.836 593.227L551.057 581.005L550.054 558.77Z" fill="#2F2E41"/>
<path d="M632.591 590.823L653.426 599.638C653.426 599.638 692.691 617.267 695.095 641.307C697.499 665.347 668.896 755.096 668.896 755.096L637.505 756.973C637.505 756.973 646.835 763.465 646.835 718.928C646.835 687.928 660.638 658.135 660.638 658.135C660.638 658.135 640.604 621.274 589.319 630.088C589.319 630.088 533.279 628.272 506.835 661.928C506.835 661.928 520.835 691.928 521.835 709.928L525.974 748.891L499.53 751.295C499.53 751.295 461.106 648.519 477.934 627.684C494.762 606.85 530.822 594.83 530.822 594.83L632.591 590.823Z" fill="#2F2E41"/>
<path d="M605.715 455.65L603.835 432.928H578.835L573.293 457.001L605.715 455.65Z" fill="#A0616A"/>
<path opacity="0.1" d="M605.715 455.65L603.835 432.928H578.835L573.293 457.001L605.715 455.65Z" fill="black"/>
<path d="M614.725 412.83C614.725 427.923 602.49 440.157 587.398 440.157C572.306 440.157 560.071 427.923 560.071 412.83C560.071 397.738 572.306 385.503 587.398 385.503C602.49 385.503 614.725 397.738 614.725 412.83Z" fill="#A0616A"/>
<path d="M573.293 452.193H605.346L609.353 461.008L613.359 549.955C613.359 549.955 582.909 542.743 556.465 543.545L562.875 462.61L570.889 457.802L573.293 452.193Z" fill="#FFFF00"/>
<path d="M603.743 633.294C603.743 633.294 619.77 597.234 626.18 596.433C632.591 595.631 647.056 596.433 647.056 596.433L643.81 590.823C643.81 590.823 643.008 579.605 634.995 579.605C626.982 579.605 630.187 464.213 630.187 464.213L607.741 457.463C607.741 457.463 594.929 497.068 594.929 534.73C594.929 572.393 593.326 614.062 593.326 614.062L603.743 633.294Z" fill="#2F2E41"/>
<path d="M571.811 455.65L543.643 463.412L546.849 573.995L528.418 596.433C528.418 596.433 552.458 596.433 558.067 616.466C558.067 616.466 564.721 627.419 571.811 626.35C578.902 625.28 574.094 602.843 574.094 602.843L566.882 574.797L567.683 527.518L571.811 455.65Z" fill="#2F2E41"/>
<path d="M580.505 384.08C580.505 384.08 580.505 372.861 590.922 375.265C601.339 377.669 604.545 381.676 604.545 381.676C604.545 381.676 608.551 388.087 614.962 388.888C621.372 389.689 626.982 408.12 626.18 412.127C625.379 416.133 621.372 426.551 626.982 431.359C632.591 436.167 640.604 443.379 638.2 450.59C635.796 457.802 628.584 476.233 628.584 476.233C628.584 476.233 648.7 479.173 647.056 491.726C647.056 491.726 637.399 484.246 624.578 484.246C611.757 484.246 613.359 460.986 613.359 460.986C613.359 460.986 612.558 446.584 610.154 442.577C607.75 438.571 610.955 416.133 598.935 404.113C586.915 392.093 580.505 384.08 580.505 384.08Z" fill="#2F2E41"/>
<path d="M583.71 381.676C583.71 381.676 568.485 384.881 562.875 400.107C557.266 415.332 560.099 418.165 560.099 418.165C560.099 418.165 558.859 427.333 552.053 430.548C545.246 433.762 550.855 447.385 550.855 447.385C550.855 447.385 549.253 461.008 527.617 465.816C505.981 470.624 510.789 498.67 510.789 498.67C510.789 498.67 528.418 473.829 550.855 473.028C573.293 472.226 569.286 447.385 569.286 447.385L566.882 420.941C566.882 420.941 571.69 390.491 586.114 386.484C600.538 382.477 583.71 381.676 583.71 381.676Z" fill="#2F2E41"/>
<path d="M605.448 635.235C604.813 642.69 608.145 649.061 612.889 649.464C617.634 649.868 621.993 644.151 622.628 636.694C622.922 633.718 622.499 630.715 621.395 627.936L623.687 596.315L608.825 595.556L608.143 626.809C606.585 629.362 605.661 632.252 605.448 635.235Z" fill="#A0616A"/>
<path d="M547.752 636.037C547.117 643.492 550.449 649.862 555.193 650.266C559.938 650.669 564.298 644.953 564.932 637.495C565.226 634.519 564.803 631.517 563.699 628.738L565.991 597.116L551.129 596.357L550.448 627.611C548.889 630.164 547.965 633.053 547.752 636.037H547.752Z" fill="#A0616A"/>
<path d="M624.177 464.614C624.177 464.614 644.21 459.004 648.217 471.826C652.224 484.647 639.803 555.164 639.803 555.164L628.184 628.886L603.343 624.078L619.369 525.515L624.177 464.614H624.177Z" fill="#2F2E41"/>
<path d="M563.841 463.565C563.841 463.565 544.427 456.088 539.228 468.474C534.028 480.859 539.732 552.234 539.732 552.234L544.337 626.724L569.521 624.284L562.875 524.647L563.841 463.564V463.565Z" fill="#2F2E41"/>
<path d="M440.858 417.928H276.811C270.207 417.928 264.835 412.555 264.835 405.951V281.904C264.835 275.301 270.207 269.928 276.811 269.928H440.858C447.462 269.928 452.835 275.301 452.835 281.904V405.951C452.835 412.555 447.462 417.928 440.858 417.928Z" fill="white"/>
<path d="M440.858 417.928H276.811C270.207 417.928 264.835 412.555 264.835 405.951V281.904C264.835 275.301 270.207 269.928 276.811 269.928H440.858C447.462 269.928 452.835 275.301 452.835 281.904V405.951C452.835 412.555 447.462 417.928 440.858 417.928ZM276.811 271.928C271.31 271.928 266.835 276.403 266.835 281.904V405.951C266.835 411.452 271.31 415.928 276.811 415.928H440.858C446.359 415.928 450.835 411.452 450.835 405.951V281.904C450.835 276.403 446.359 271.928 440.858 271.928H276.811Z" fill="#3F3D56"/>
<path d="M422.835 284.928C424.492 284.928 425.835 283.585 425.835 281.928C425.835 280.271 424.492 278.928 422.835 278.928C421.178 278.928 419.835 280.271 419.835 281.928C419.835 283.585 421.178 284.928 422.835 284.928Z" fill="#3F3D56"/>
<path d="M430.835 284.928C432.492 284.928 433.835 283.585 433.835 281.928C433.835 280.271 432.492 278.928 430.835 278.928C429.178 278.928 427.835 280.271 427.835 281.928C427.835 283.585 429.178 284.928 430.835 284.928Z" fill="#3F3D56"/>
<path d="M438.835 284.928C440.492 284.928 441.835 283.585 441.835 281.928C441.835 280.271 440.492 278.928 438.835 278.928C437.178 278.928 435.835 280.271 435.835 281.928C435.835 283.585 437.178 284.928 438.835 284.928Z" fill="#3F3D56"/>
<path d="M281.835 330.428C281.008 330.428 280.335 331.101 280.335 331.928C280.335 332.331 280.491 332.704 280.773 332.979C281.058 333.271 281.432 333.428 281.835 333.428H436.835C437.662 333.428 438.335 332.755 438.335 331.928C438.335 331.524 438.179 331.151 437.896 330.876C437.611 330.584 437.238 330.428 436.835 330.428H281.835Z" fill="#E6E6E6"/>
<path d="M408.835 329.928V333.928H281.835C281.285 333.928 280.785 333.708 280.425 333.338C280.055 332.978 279.835 332.478 279.835 331.928C279.835 330.828 280.735 329.928 281.835 329.928H408.835Z" fill="#FFFF00"/>
<path d="M434.335 322.428H414.335C412.129 322.428 410.335 320.634 410.335 318.428C410.335 316.222 412.129 314.428 414.335 314.428H434.335C436.54 314.428 438.335 316.222 438.335 318.428C438.335 320.634 436.54 322.428 434.335 322.428Z" fill="#E6E6E6"/>
<path d="M303.335 301.428H283.335C281.129 301.428 279.335 299.634 279.335 297.428C279.335 295.222 281.129 293.428 283.335 293.428H303.335C305.54 293.428 307.335 295.222 307.335 297.428C307.335 299.634 305.54 301.428 303.335 301.428Z" fill="#E6E6E6"/>
<path d="M281.835 375.428C281.008 375.428 280.335 376.101 280.335 376.928C280.335 377.331 280.491 377.704 280.773 377.98C281.058 378.271 281.432 378.428 281.835 378.428H436.835C437.662 378.428 438.335 377.755 438.335 376.928C438.335 376.524 438.179 376.151 437.896 375.876C437.611 375.584 437.238 375.428 436.835 375.428H281.835Z" fill="#E6E6E6"/>
<path d="M331.835 374.928V378.928H281.835C281.285 378.928 280.785 378.708 280.425 378.338C280.055 377.978 279.835 377.478 279.835 376.928C279.835 375.828 280.735 374.928 281.835 374.928H331.835Z" fill="#FFFF00"/>
<path d="M434.335 367.428H414.335C412.129 367.428 410.335 365.634 410.335 363.428C410.335 361.222 412.129 359.428 414.335 359.428H434.335C436.54 359.428 438.335 361.222 438.335 363.428C438.335 365.634 436.54 367.428 434.335 367.428Z" fill="#E6E6E6"/>
</g>
<defs>
<clipPath id="clip0_0_1">
<rect width="583.04" height="695.439" fill="white" transform="translate(193 120)"/>
</clipPath>
</defs>
</svg>
